<?xml version="1.0" standalone="no"?>
<!DOCTYPE svg PUBLIC "-//W3C//DTD SVG 20010904//EN"
 "http://www.w3.org/TR/2001/REC-SVG-20010904/DTD/svg10.dtd">
<svg version="1.0" xmlns="http://www.w3.org/2000/svg"
 width="600.000000pt" height="600.000000pt" viewBox="0 0 600.000000 600.000000"
 preserveAspectRatio="xMidYMid meet">
<metadata>
Created by potrace 1.14, written by Peter Selinger 2001-2017
</metadata>
<g transform="translate(0.000000,600.000000) scale(0.100000,-0.100000)"
fill="#000000" stroke="none">
<path d="M2829 5395 c-2 -2 -33 -6 -69 -9 -408 -37 -781 -176 -1140 -424 -52
-36 -100 -70 -106 -76 -7 -6 -36 -31 -65 -55 -102 -84 -277 -270 -361 -383
-177 -236 -303 -481 -384 -743 -49 -160 -74 -283 -91 -455 -10 -93 -10 -413 0
-500 9 -88 35 -246 48 -295 6 -22 13 -51 16 -64 8 -48 86 -268 126 -356 128
-285 285 -514 502 -730 399 -399 903 -638 1460 -692 104 -10 399 -10 495 0
450 49 877 227 1250 521 102 81 291 272 372 376 232 299 400 659 467 1000 6
30 14 66 16 80 8 35 14 82 24 175 9 85 8 463 -2 505 -3 14 -8 45 -11 70 -16
153 -87 411 -161 584 -209 491 -550 879 -1009 1150 -146 86 -385 192 -516 227
-25 7 -49 14 -55 16 -43 13 -199 45 -290 59 -95 14 -506 30 -516 19z m271
-454 c0 -5 -14 -32 -31 -60 -50 -80 -66 -143 -68 -266 -1 -60 -3 -110 -4 -112
-2 -1 -85 -3 -185 -3 -100 -1 -199 -6 -220 -11 -151 -39 -291 -180 -331 -333
-6 -22 -10 -181 -11 -372 l0 -334 525 0 525 0 0 -169 c0 -92 5 -193 10 -222
27 -144 137 -273 284 -332 49 -21 70 -21 576 -24 297 -1 546 2 572 7 58 11
149 52 167 74 24 28 28 18 19 -46 -48 -366 -191 -695 -424 -978 -56 -68 -224
-236 -285 -285 -288 -232 -637 -378 -986 -412 -93 -9 -406 -8 -483 1 -74 10
-223 41 -293 61 l-57 16 0 330 0 329 451 0 451 0 -5 228 c-4 189 -8 240 -26
306 -66 245 -240 458 -471 574 -90 45 -206 77 -305 86 -33 3 -372 5 -753 5
l-693 1 5 113 c5 114 34 301 61 409 133 511 536 997 1027 1236 262 127 513
185 836 191 74 1 122 -2 122 -8z"/>
</g>
</svg>
